<?xml version="1.0" encoding="UTF-8" standalone="no"?>
<!-- Created with Inkscape (http://www.inkscape.org/) -->

<svg
   width="1000"
   height="1000"
   viewBox="0 0 264.58333 264.58333"
   version="1.1"
   id="svg1"
   xml:space="preserve"
   inkscape:version="1.4.3 (0d15f75042, 2025-12-25)"
   sodipodi:docname="DnDVoid.svg"
   xmlns:inkscape="http://www.inkscape.org/namespaces/inkscape"
   xmlns:sodipodi="http://sodipodi.sourceforge.net/DTD/sodipodi-0.dtd"
   xmlns="http://www.w3.org/2000/svg"
   xmlns:svg="http://www.w3.org/2000/svg"><sodipodi:namedview
     id="namedview1"
     pagecolor="#505050"
     bordercolor="#eeeeee"
     borderopacity="1"
     inkscape:showpageshadow="0"
     inkscape:pageopacity="0"
     inkscape:pagecheckerboard="0"
     inkscape:deskcolor="#505050"
     inkscape:document-units="mm"
     inkscape:zoom="0.54740759"
     inkscape:cx="322.42885"
     inkscape:cy="410.11489"
     inkscape:window-width="1834"
     inkscape:window-height="1070"
     inkscape:window-x="0"
     inkscape:window-y="0"
     inkscape:window-maximized="1"
     inkscape:current-layer="layer1" /><defs
     id="defs1" /><g
     inkscape:label="Layer 1"
     inkscape:groupmode="layer"
     id="layer1"><g
       style="fill:#e6e6e6;fill-opacity:1;stroke:#2e0333;stroke-opacity:1;stroke-width:1.00003183;stroke-dasharray:none;paint-order:stroke fill markers"
       id="g1"
       transform="matrix(10.05368,0,0,10.05368,-33.603816,-28.569596)"><path
         d="m 12.912109,5.0019531 c -0.30875,-0.00962 -0.629265,0.012266 -0.947265,0.072266 -1.108,0.2099999 -1.543922,0.6566093 -1.919922,0.9746093 -0.021,-0.253 0.04691,-0.5067656 0.128906,-0.7597656 -0.9779999,0.696 -1.575078,1.6334531 -1.830078,2.8144531 -0.13,-0.305 -0.1686406,-0.6097344 -0.1816406,-0.9277344 -0.463,0.6190001 -0.5748282,1.3313125 -0.5488282,2.0703126 0.03,0.8979999 0.2761719,1.7180939 0.9511719,2.3710939 -0.195,-0.799001 -0.073844,-1.559219 0.2851563,-2.3242189 0.311,1.0269999 0.9271406,1.7691869 1.8691406,2.2421869 0.005,-0.026 0.0078,-0.03388 0.0078,-0.04687 1e-6,-0.022 9.4e-5,-0.04736 -0.0039,-0.06836 -0.091,-0.601 -0.03958,-1.198109 0.107422,-1.7871092 0.017,-0.052 0.009,-0.1119688 0,-0.1679687 -0.138,-0.6960001 -0.02034,-1.3360469 0.472656,-1.8730469 0.618,-0.67 1.687453,-0.6823907 2.314454,-0.025391 0.303,0.314 0.441234,0.704 0.490234,1.125 0.077,0.6790001 -0.07459,1.3086718 -0.433594,1.8886718 -0.039,0.06 -0.04409,0.10425 0.0039,0.15625 0.459,0.524 -0.231859,-0.145578 1.619141,1.607422 0.082,0.078 0.163,0.158234 0.25,0.240234 0.376,-0.46 0.669531,-0.974812 0.894531,-1.507812 0.389,-0.92 0.588375,-1.8615157 0.359375,-2.8535158 -0.376,-1.6319999 -1.350625,-2.7054687 -3.015625,-3.1054687 -0.268,-0.0645 -0.564297,-0.1056094 -0.873047,-0.1152344 z m -1.453125,4.0703125 c -0.074,0.086 -0.138828,0.1821563 -0.173828,0.2851563 -0.074,0.232 -0.150359,0.4632187 -0.193359,0.6992191 -0.1,0.537 -0.113703,1.078234 0.0293,1.615234 0.026,0.086 0.06848,0.141359 0.146484,0.193359 0.416,0.275 0.762516,0.619219 0.978516,1.074219 0.034,0.082 0.0607,0.167813 0.0957,0.257813 -0.142,-0.163 -0.269016,-0.32675 -0.416016,-0.46875 -0.476,-0.455 -1.167531,-0.729875 -2.019531,-1.296875 -0.428,-0.287 -0.7924844,-0.639391 -1.0214844,-1.150391 -0.152,0.602 -0.086203,1.138109 0.2167969,1.662109 -0.562,-0.15 -1.1198906,-0.179203 -1.7128906,-0.158203 0.385,0.245 0.7260781,0.519063 0.9550781,0.914063 0.164,0.288 0.1300938,0.447625 -0.1289062,0.640625 -0.7400001,0.507 -1.6138751,0.803453 -2.296875,1.439453 0.051,0.013 0.086,0.004 0.125,0 0.333,-0.052 0.6658125,-0.09564 1.0078124,-0.05664 0.4670001,0.051 0.7865625,0.297172 0.8515626,0.701172 0.031,0.189 0.022094,0.390985 -0.00391,0.583984 -0.026,0.206001 -0.094578,0.407282 -0.1425781,0.613282 0.796,-0.683 1.6692187,-1.228297 2.6992183,-1.529297 -0.334,-0.06 -0.6619058,-0.119688 -1.0039058,-0.179688 0.9559998,-1.053 2.8121088,-1.035437 3.0371088,-0.898437 -0.705,0.06 -1.379719,0.226953 -2.011719,0.626953 0.679001,0.155 0.406454,0.08648 1.064454,0.271484 -0.666,0.339 -1.142157,0.812422 -1.410157,1.482422 0.35,-0.202 0.727094,-0.270328 1.121094,-0.236328 0.925,0.081 1.456078,0.806891 1.080078,1.712891 -0.095,0.228 -0.238406,0.418453 -0.441406,0.564453 l 0.01367,0.03906 c 0.273,-0.034 0.549078,-0.06952 0.830078,-0.103515 -0.139,0.327 -0.3845,0.567531 -0.6875,0.769531 0.688,0.065 1.856844,-0.602375 1.964844,-1.109375 -0.268,0.021 -0.666688,0.1255 -0.679688,-0.3125 -0.004,-0.103 -0.01291,-0.01811 0.121094,-0.787109 -0.044,0.034 -0.09058,0.07819 -0.142578,0.117187 -0.311,0.215 -0.484344,-0.133109 -0.402344,-0.412109 0.078,-0.266 0.163,-0.5335 0.25,-0.8125 -0.312,-0.099 -0.660625,-0.125578 -1.015625,-0.142578 0.216,-0.116 1.423,-0.395266 2.5,-0.197266 0.428,0.077 0.179563,0.573937 -0.02344,0.960937 0.437,0.034 0.698187,0.03384 0.992187,0.08984 0.93,0.185 0.729891,0.998406 0.712891,1.191406 0.783,-0.360999 1.359734,-1.655437 1.177734,-2.523437 -0.168,0.279 -0.375984,0.511047 -0.708984,0.623047 0.013,-0.318 -0.151922,-0.501281 -0.419922,-0.613281 -0.026,-0.013 -0.05283,-0.05994 -0.04883,-0.08594 0.069,-0.456 -0.03809,-0.871484 -0.246094,-1.271484 -0.272,-0.533 -0.674422,-0.955375 -1.107422,-1.359375 -1.251,-1.169 -1.924812,-1.734563 -2.132812,-2.7265628 -0.035,-0.159 -0.03855,-0.3180468 -0.06055,-0.4980468 -0.034,0.056 -0.06003,0.097625 -0.08203,0.140625 -0.186,0.412 -0.237546,0.8518286 -0.185546,1.2988286 0.022,0.18 0.0777,0.337796 0.220703,0.466796 0.424,0.387 0.846719,0.777735 1.261719,1.177735 0.432999,0.417 0.830875,0.893172 1.046874,1.451172 -0.069,-0.06 -0.114109,-0.132172 -0.162109,-0.201172 -0.311,-0.434 -0.714516,-0.787344 -1.103515,-1.152344 -0.497001,-0.464 -0.999797,-0.919297 -1.466797,-1.404297 -0.848,-0.88 -0.821657,-1.6805624 -0.847657,-1.9765624 z m 11.851563,3.5156254 c -0.026,0 -0.05203,0.0097 -0.08203,0.01367 -0.835,0.142 -1.328235,0.665485 -2.115235,1.271485 -0.45,0.348 -0.595578,0.162516 -0.517578,-0.02149 0.061,-0.15 0.142703,-0.287687 0.220703,-0.429687 0.043,-0.077 0.09839,-0.14575 0.150391,-0.21875 -0.009,-0.009 -0.0213,-0.01348 -0.0293,-0.02148 -1.168,0.786 -2.020094,1.821437 -2.496094,3.148437 0.013,0.013 0.02997,0.02606 0.04297,0.03906 0.013,-0.026 0.02206,-0.05127 0.03906,-0.07227 0.449999,-0.52 0.985031,-0.936297 1.582031,-1.279297 0.787,-0.455 1.622062,-0.78714 2.539062,-0.86914 0.186,-0.017 0.37736,-0.0039 0.56836,-0.0039 -0.078,0.03 -0.152469,0.03887 -0.230469,0.04687 -0.8,0.103 -1.534563,0.386922 -2.226563,0.794922 -1.306,0.769 -2.359,1.814391 -3.25,3.025391 -0.013,0.017 -0.0163,0.03769 -0.0293,0.05469 0.627,0.228 1.036547,0.744563 1.560547,1.101563 0.009,-0.004 0.01358,-0.0096 0.01758,-0.01758 l 0.05273,-0.117188 c 0.528,-1.156 1.167531,-2.247172 2.019531,-3.201172 0.722,-0.808 1.643125,-1.085422 2.703125,-0.857422 0.255,0.056 0.493141,0.188016 0.744141,0.291016 0.099,-0.06 0.222656,-0.136172 0.347656,-0.201172 0.363,-0.185 0.752297,-0.300719 1.154297,-0.386719 0.636,-0.133 1.276781,-0.21164 1.925781,-0.05664 v -0.02149 c -0.023,-0.019 -0.05417,-0.0365 -0.07617,-0.0625 -0.502,-0.498 -1.080375,-0.875578 -1.734375,-1.142578 -0.554,-0.223 -1.125562,-0.338687 -1.726562,-0.304687 -0.433,0.026 -0.847907,0.13339 -1.253906,0.27539 -0.108001,0.039 -0.220032,0.0697 -0.332032,0.0957 -0.212,0.052 -0.316125,-0.133969 -0.203125,-0.292969 0.138,-0.198 0.146438,-0.179625 0.648438,-0.515625 0.026,-0.017 0.0527,-0.03445 0.0957,-0.06445 z m -9.412109,1.263671 c 0.505999,0.206 0.830296,0.557969 1.029296,1.042969 -0.485,0.052 -0.886296,-0.355969 -1.029296,-1.042969 z M 7.4277344,15.228516 C 6.3807344,16.287516 5.502,17.450375 5,18.859375 c 0.32,-0.253 0.6454844,-0.489312 1.0214844,-0.695313 -0.359,0.958 -0.8488906,2.268751 -0.3378906,4.34375 0.1989999,0.816 0.5149687,1.580094 1.0429687,2.246094 0.125,0.159 0.2741094,0.295407 0.4121094,0.441406 0.009,-0.009 0.016391,-0.01153 0.025391,-0.01953 -0.061,-0.301 -0.094453,-0.606406 -0.064453,-0.941406 0.095,0.137 0.1679062,0.258141 0.2539062,0.369141 0.545,0.687 1.2419688,1.177297 2.0429688,1.529296 1.0810001,0.485 2.2091411,0.571141 3.3691411,0.369141 2.375,-0.417 3.922577,-2.089094 5.017577,-4.246094 0.042,-0.075 0.02594,-0.121734 -0.03906,-0.177734 -1.704,-1.418 -0.986657,-0.838297 -1.847656,-1.529297 -0.035,0.039 -3.1e-5,-0.0091 -0.08203,0.128906 -0.484,0.821 -1.102344,1.516922 -1.902344,2.044922 -0.446,0.292 -0.929609,0.507813 -1.474609,0.507813 -0.934,0 -1.651719,-0.409313 -2.136719,-1.195313 -0.5190003,-0.838 -0.575469,-1.7475 -0.355469,-2.6875 0.337,-1.452 1.301922,-2.370719 1.669922,-2.761718 -0.809,-0.266 -1.427812,0.0717 -2.0078126,0.595703 0.035,-0.597 0.1857656,-1.125563 0.5097666,-1.601563 -1.051001,0.455 -1.9857354,1.074719 -2.8027354,1.886719 -0.013,-0.249 0.2341875,-1.876922 0.2421875,-1.919922 0.013,-0.116 -0.024906,-0.228359 -0.1289062,-0.318359 z m 6.3164066,0.732422 c -0.216,0.472999 -0.06859,0.962156 0.316406,1.285156 0.195,0.163 0.402656,0.313468 0.597656,0.480468 0.199,0.163001 0.319797,0.374719 0.341797,0.636719 0.017,0.202 0.03513,0.407469 0.07813,0.605469 0.095,0.455 0.384375,0.790125 0.734375,1.078125 0.714,0.589 1.426625,1.172625 2.140625,1.765625 0.774,0.644 0.6015,1.40925 0.5625,2.40625 -0.039,0.984 0.528219,1.844172 1.449219,2.201172 0.043,0.017 0.08725,0.02587 0.15625,0.04687 -0.679,-0.782 -0.437703,-1.896047 0.0293,-2.248047 0.013,0.095 0.01706,0.185391 0.03906,0.275391 0.407,1.895 1.964735,2.757359 3.677735,2.443359 0.692,-0.125 1.323468,-0.380609 1.855468,-0.849609 0.087,-0.077 0.16086,-0.176297 0.25586,-0.279297 -0.835,0.198 -1.550125,0.0039 -2.203125,-0.455078 0.03,-0.013 0.05603,-0.01367 0.08203,-0.01367 0.921,0.077 1.756797,-0.146047 2.466797,-0.748047 0.844,-0.713 1.149953,-1.841985 0.751953,-2.833985 -0.357,-0.865 -1.018578,-1.388875 -1.892578,-1.671874 -0.411,-0.133 -0.959235,-0.18 -1.240235,-0.125 0.428,0.172 0.6095,0.283625 0.8125,0.515624 0.545,0.619 0.449625,1.490985 -0.234375,1.958985 -0.506,0.348 -1.07564,0.450625 -1.68164,0.390625 -0.052,-0.004 -0.09986,-0.01639 -0.13086,-0.02539 0.121,-0.159 0.25961,-0.301844 0.34961,-0.464843 0.407,-0.722001 0.235,-1.809157 -0.375,-2.410157 -0.091,-0.09 -0.198735,-0.166953 -0.302735,-0.251953 -0.013,0.056 -0.0041,0.08914 0.0039,0.119141 0.182,0.713 -0.351219,1.391234 -1.074219,1.365234 -0.329,-0.013 -0.600656,-0.161281 -0.847656,-0.363281 -0.844,-0.692 -1.69125,-1.380172 -2.53125,-2.076172 -0.255,-0.211 -0.541141,-0.347047 -0.869141,-0.373047 -0.199,-0.017 -0.400609,-0.02606 -0.599609,-0.03906 -0.255,-0.017 -0.382172,-0.120328 -0.451172,-0.361329 -0.039,-0.146 -0.06375,-0.2915 -0.09375,-0.4375 -0.065,-0.347999 -0.268141,-0.559328 -0.619141,-0.611328 -0.19,-0.03 -0.386172,-0.04345 -0.576172,-0.06445 -0.562,-0.06 -0.856515,-0.317094 -0.978515,-0.871093 z"
         id="path1"
         style="fill:#e6e6e6;fill-opacity:1;stroke:#2e0333;stroke-opacity:1;stroke-width:1.00003183;stroke-dasharray:none;paint-order:stroke fill markers" /></g></g></svg>
