<?xml version="1.0" encoding="UTF-8" standalone="no"?>
<!-- Created with Inkscape (http://www.inkscape.org/) -->

<svg
   width="1000"
   height="1000"
   viewBox="0 0 264.58333 264.58333"
   version="1.1"
   id="svg1"
   xml:space="preserve"
   sodipodi:docname="PFVoid.svg"
   inkscape:version="1.4.3 (0d15f75042, 2025-12-25)"
   xmlns:inkscape="http://www.inkscape.org/namespaces/inkscape"
   xmlns:sodipodi="http://sodipodi.sourceforge.net/DTD/sodipodi-0.dtd"
   xmlns="http://www.w3.org/2000/svg"
   xmlns:svg="http://www.w3.org/2000/svg"><sodipodi:namedview
     id="namedview1"
     pagecolor="#505050"
     bordercolor="#eeeeee"
     borderopacity="1"
     inkscape:showpageshadow="0"
     inkscape:pageopacity="0"
     inkscape:pagecheckerboard="0"
     inkscape:deskcolor="#505050"
     inkscape:document-units="mm"
     inkscape:zoom="0.38707562"
     inkscape:cx="171.80106"
     inkscape:cy="600.65783"
     inkscape:window-width="1834"
     inkscape:window-height="1070"
     inkscape:window-x="0"
     inkscape:window-y="0"
     inkscape:window-maximized="1"
     inkscape:current-layer="layer1" /><defs
     id="defs1" /><g
     inkscape:label="Layer 1"
     inkscape:groupmode="layer"
     id="layer1"><g
       id="g17"
       transform="matrix(1.3607375,0,0,1.3607375,217.98244,-327.06325)"><path
         id="path16"
         style="fill:#e6e6e6;fill-opacity:1;stroke:none;stroke-width:9.18329;stroke-linecap:round;stroke-linejoin:round;stroke-dasharray:none;stroke-opacity:1;paint-order:stroke fill markers"
         d="m -83.593346,249.41888 c -2.064481,0.27043 -1.845781,2.88094 -2.386936,4.38577 -1.984084,6.61815 -6.378234,12.44653 -11.758972,16.47859 -4.139076,3.23662 -9.249296,4.94022 -14.439946,5.44256 -6.26235,0.57862 -11.36403,7.34057 -9.53947,13.50097 1.35319,5.28728 7.97978,8.01357 12.76408,5.56453 2.30132,-1.13948 4.59471,-3.54356 3.79615,-6.32158 -0.44005,-1.59562 -1.81212,-3.38762 -3.59823,-3.33674 -1.39264,0.26453 -1.16165,1.87571 -1.17719,2.8639 -1.10163,1.58798 -4.01388,0.007 -3.04684,-1.72804 1.19093,-2.98874 5.7132,-2.73677 7.32978,-0.22792 1.85537,2.65266 0.48873,6.11667 -1.54254,8.23 -1.81341,1.96972 -3.52447,4.33388 -3.34243,7.15719 -0.42916,1.44733 0.41953,2.79122 1.93425,2.95796 4.24272,1.44137 7.27849,5.30842 8.789127,9.39734 1.479515,7.66191 1.821883,15.46506 2.408639,23.21616 1.068994,16.07738 0.541764,32.31065 -0.301789,48.39808 -0.03699,2.95188 -0.704395,5.93696 -0.412379,8.87699 -0.592852,-2.88595 -3.186958,-5.45598 -6.190318,-5.41984 -1.42946,0.1704 -3.82127,0.28194 -3.85506,2.17816 0.19206,1.87529 3.37761,1.66714 3.03288,3.80907 -0.35658,3.50118 -2.4378,6.64925 -2.25619,10.24901 -0.19798,0.77576 -0.0972,1.47132 0.17364,2.11354 -0.73812,0.3968 -1.2039,1.45987 -0.7519,2.32236 2.23306,5.95961 9.491004,9.38768 15.531356,7.35872 1.072669,-0.1629 1.730079,1.19843 2.539897,1.78181 2.10239,2.00131 3.773279,4.38362 5.55625,6.64507 1.548395,1.16231 2.726076,-0.89427 3.614767,-1.88775 2.350193,-3.12219 5.342355,-5.65555 8.481134,-7.94473 1.44228,-1.09445 0.710213,-3.09038 -0.546219,-3.98735 -2.254356,-2.19374 -5.243576,-4.69781 -4.725292,-8.22068 0.840542,-13.61932 2.481556,-27.29794 3.78478,-40.91895 2.207731,-21.22485 4.272484,-42.51045 6.567043,-63.69328 5.376283,-2.65017 11.013069,-4.69265 16.593301,-6.88485 0.955381,-0.68945 0.739698,0.62873 0.892969,1.30069 1.3911,6.97569 5.544238,12.97429 9.354468,18.83709 5.542248,8.11376 11.906123,16.3698 13.092223,26.40356 1.1059,6.50219 0.396066,13.91947 -4.151167,19.09599 -3.372294,3.90829 -8.588319,5.69862 -13.65963,5.27772 -8.532619,-0.0335 -16.683762,-6.41339 -18.275371,-14.88125 -0.566762,-2.18927 -0.184912,-4.39275 -0.335897,-6.57222 -0.481883,-1.68082 -2.801972,-0.98857 -2.893364,0.5457 -2.25688,6.40508 -0.966981,13.78093 3.032374,19.22571 4.763381,6.88284 13.210841,10.43106 21.425048,10.47686 15.521585,0.79793 30.513861,-9.92732 35.6226318,-24.45895 3.4414351,-9.31836 4.0041993,-19.84523 0.5193482,-29.23958 -3.8040045,-10.83681 -11.069895,-19.91077 -16.265674,-30.03331 -2.135149,-3.97036 -2.903652,-8.44669 -3.351216,-12.8788 0.06619,-1.31429 -1.263961,-2.3921 -2.478401,-1.6459 -12.826108,5.09921 -25.518904,10.52719 -38.306708,15.72102 0.540721,-2.76699 3.225355,-4.31639 4.944401,-6.30711 1.55625,-1.82055 3.837207,-3.26483 4.610055,-5.61721 0.09405,-2.32238 -2.726203,-2.94151 -4.429186,-3.6153 -8.237619,-2.83064 -14.982436,-9.34246 -18.343067,-17.3514 -1.124159,-2.09668 -1.338197,-4.84175 -3.222025,-6.43836 -0.245351,-0.13561 -0.526253,-0.20889 -0.807185,-0.20102 z"
         sodipodi:nodetypes="cccccccccccccccccccccccccccccccccccccccccccccccccccccccc" /><path
         id="path11"
         style="fill:#2e0333;fill-opacity:1"
         d="m -83.455888,242.83531 c -3.613946,-0.01 -7.177434,2.38681 -8.445996,7.19542 -2.67722,10.14828 -11.322786,18.53217 -19.428786,18.84071 -18.25431,0.6948 -24.36821,26.71961 -7.60987,32.39286 1.33749,0.45279 1.3377,0.45264 1.90066,2.69234 0.88859,3.53518 2.83392,5.73156 5.79292,6.53965 3.90236,1.06573 5.17891,3.86663 6.08387,13.35319 0.22211,2.32834 0.46308,4.82865 0.53588,5.55625 1.05158,10.51382 1.36603,38.98799 0.54571,49.41094 -0.0315,0.40018 -0.0779,1.30475 -0.10336,2.01021 -0.0444,1.23043 -0.0785,1.28385 -0.83354,1.30535 -7.74562,0.22022 -12.4951,7.97395 -8.40723,13.72474 0.77224,1.08638 0.84972,2.26351 0.2067,3.13418 -0.29722,0.40246 -1.0666,3.71055 -1.0666,4.58628 0,0.42519 -0.19576,1.64017 -0.43512,2.7001 -1.90997,8.45762 8.08708,17.98133 18.874821,17.98133 2.44988,0 2.937369,0.36792 5.431193,4.10104 1.44092,2.157 2.572422,3.00733 4.808492,3.6127 3.88194,1.05095 6.779393,-0.23042 10.189559,-4.5067 1.701548,-2.13371 2.782979,-3.14293 6.903971,-6.4394 5.522042,-4.4172 5.402029,-10.16537 -0.312126,-14.93139 -2.515378,-2.09801 -2.421378,-0.92827 -1.159102,-14.38 1.119323,-11.92833 2.339882,-24.45369 2.390552,-24.53339 0.02083,-0.0328 0.864193,0.74644 1.874304,1.73168 11.809672,11.51884 33.540369,12.2081 49.307068,1.56373 15.50096939,-10.46499 22.6581739,-31.35962 17.6356159,-51.48626 -1.99350896,-7.98848 -3.8219161,-11.78902 -11.2174031,-23.31951 -6.4760318,-10.09694 -8.4258728,-14.30636 -8.6687218,-18.71669 -0.376964,-6.84598 -1.959609,-9.49112 -6.260083,-10.46138 -2.923496,-0.65959 -2.340516,-0.85468 -23.130888,7.75767 -2.537669,1.05122 -2.732133,1.03289 -2.732133,-0.2558 0,-1.882 -3.742328,-5.35582 -6.690547,-6.21047 -7.953705,-2.30569 -14.625833,-9.16242 -17.23254,-17.70848 -1.468927,-4.81587 -5.133324,-7.23134 -8.74727,-7.2409 z m -0.128674,7.6755 c 0.47548,-2e-4 1.102866,1.04496 1.740979,3.02514 3.268981,10.14431 11.066654,18.07738 20.871594,21.23332 4.397917,1.41556 4.237603,1.96923 -2.329573,8.03569 -1.712425,1.58185 -3.288966,3.21506 -3.503146,3.62924 -0.353318,0.68324 -1.227244,4.24994 -1.07797,4.39921 0.03433,0.0343 2.019992,-0.75403 4.41265,-1.75183 17.322281,-7.22386 36.553913,-15.13491 36.614303,-15.06161 0.03988,0.0484 0.209746,1.47879 0.377755,3.17861 0.673093,6.80998 2.654583,11.34916 9.73894,22.30924 11.8489207,18.33124 14.3883697,29.65468 10.0169597,44.66549 -5.6730107,19.48033 -26.1308517,30.72251 -44.6288007,24.52512 -11.490368,-3.84962 -17.973364,-16.31995 -13.950053,-26.83351 0.707802,-1.8496 0.742084,-1.80982 0.516765,0.59945 -0.954196,10.20299 5.928935,19.07308 16.379878,21.10775 13.943556,2.71464 24.073102,-7.21498 22.75055,-22.30148 -0.865178,-9.86918 -3.371367,-15.50948 -12.674679,-28.52487 -6.591373,-9.22137 -10.317651,-16.97973 -10.344071,-21.53512 -0.0094,-1.62798 0.0972,-1.65384 -9.953915,2.42311 -8.038647,3.26064 -9.517355,3.9432 -9.674345,4.46484 -0.101923,0.33867 -0.611973,4.96125 -1.133264,10.27276 -0.521291,5.3115 -1.119743,11.26463 -1.329634,13.22916 -0.56172,5.25757 -1.54871,14.86975 -3.043742,29.63334 -0.729439,7.20328 -1.50253,14.76375 -1.717725,16.80104 -1.41729,13.41777 -3.303508,33.95582 -3.304708,35.98333 -0.0016,2.77459 1.417257,5.07974 4.959388,8.05584 2.073456,1.74213 2.070271,1.777 -0.338481,3.44217 -2.708656,1.87249 -4.781215,3.83942 -7.154602,6.79028 -2.35265,2.92508 -1.934465,2.73996 -2.865975,1.26556 -1.76447,-2.79283 -6.665835,-8.02912 -7.525639,-8.03982 -0.19589,-0.002 -1.023644,0.18925 -1.839164,0.42633 -5.10432,1.48387 -11.216523,-1.58883 -13.236923,-6.65437 -0.57068,-1.43078 0.0101,-1.83504 0.70229,-0.48886 1.8837,3.6633 7.44566,5.38228 11.54658,3.56825 7.795904,-3.4485 7.128802,-14.73168 -1.010792,-17.09663 l -1.548225,-0.4501 0.167948,-2.42052 c 0.09236,-1.33146 0.278668,-3.90932 0.413928,-5.72834 0.90113,-12.11818 1.258278,-35.65629 0.674378,-44.45 -0.06281,-0.94588 -0.183818,-3.14854 -0.268718,-4.89479 -0.25965,-5.33873 -1.266122,-16.35142 -2.004012,-21.92734 -0.64735,-4.89174 -5.346367,-10.71478 -9.753407,-12.08608 l -1.4795,-0.45992 0.003,-1.68104 c 0.004,-2.19714 0.68964,-3.58576 2.93574,-5.94382 4.06801,-4.27081 3.95246,-9.1207 -0.27957,-11.73624 -4.49631,-2.77887 -10.44703,2.93574 -6.17378,5.92884 2.09158,1.465 5.39546,-0.75186 4.02869,-2.70319 -0.69699,-0.99509 0.56378,-0.75398 1.62936,0.3116 3.75115,3.75115 -2.74108,9.19818 -8.40724,7.05384 -9.00318,-3.40724 -5.71623,-16.69679 4.27933,-17.30179 12.409595,-0.75112 24.689009,-12.12761 27.129089,-25.13438 0.145628,-0.77626 0.376171,-1.15279 0.661459,-1.1529 z m 29.080912,49.92305 c 0.09903,0 0.512365,0.8632 0.91829,1.91823 1.523418,3.95946 3.939132,7.93039 9.779248,16.07343 8.364677,11.66311 10.970205,18.52745 10.414352,27.43709 -0.258524,4.14382 -2.694602,7.93304 -6.097302,9.48521 -9.078801,4.14136 -19.067256,-4.25908 -17.161227,-14.43271 0.782009,-4.17406 -1.808205,-8.23612 -5.745902,-9.01082 -1.613573,-0.31745 -1.613628,-0.31716 -1.47898,-1.27538 0.07406,-0.52702 0.728928,-6.79266 1.455208,-13.92318 0.72628,-7.13052 1.349272,-13.12742 1.384412,-13.32683 0.05235,-0.29706 5.925312,-2.94504 6.531901,-2.94504 z m -49.94269,89.59091 c 3.51665,-0.14448 6.397252,3.92395 4.865855,7.31273 -0.16516,0.36553 -0.08405,0.46302 0.383956,0.46302 5.53294,0 7.68105,7.81744 2.77089,10.08363 -3.14419,1.45113 -6.772571,-1.11207 -4.780591,-3.37706 l 0.66301,-0.75344 0.008,0.69556 c 0.0172,1.42897 1.77362,1.73731 2.71095,0.47594 1.44259,-1.94132 -1.460332,-3.99149 -3.70985,-2.61999 -3.5339,2.15456 -1.28035,7.65151 3.141926,7.66361 7.262044,0.0199 9.236953,-9.05612 2.886129,-13.26379 -0.8782,-0.58184 -0.48659,-0.91515 0.56379,-0.48007 6.784274,2.81014 6.167725,13.75931 -0.875399,15.54686 -3.767744,0.95613 -6.596366,0.18475 -8.811346,-2.40296 -2.24928,-2.62771 -2.24899,-5.37665 10e-4,-11.17141 1.35052,-3.47816 0.93107,-5.51286 -1.34462,-6.5195 -1.69019,-0.74765 -1.50954,-1.09455 0.81597,-1.56683 0.23898,-0.0485 0.47611,-0.0767 0.71055,-0.0863 z" /></g></g></svg>
